<svg width="400" height="400" viewBox="0 0 400 400" fill="none" xmlns="http://www.w3.org/2000/svg">
<path d="M0 90C0 40.2944 40.2944 0 90 0H310C359.706 0 400 40.2944 400 90V304C400 353.706 359.706 394 310 394H90C40.2944 394 0 353.706 0 304V90Z" fill="#F87B1B"/>
<path d="M200.505 52.4473C169.104 52.4473 143.504 78.1233 142.304 110.251H258.691C257.461 78.1102 231.876 52.4341 200.505 52.4341M319.716 349.987L318.502 350L78.8343 349.974C62.5265 349.447 50.5462 337.992 48.9063 323.758L48.7544 321.19L38.0192 116.756C37.9488 115.935 38.0723 115.11 38.3822 114.331C38.692 113.553 39.1816 112.837 39.8212 112.228C40.4607 111.62 41.2367 111.13 42.1017 110.79C42.9667 110.45 43.9026 110.267 44.8521 110.251H120.393C122.231 67.8134 157.382 34 200.505 34C243.628 34 278.749 67.8266 280.602 110.238H356.037C356.982 110.241 357.916 110.409 358.784 110.734C359.651 111.059 360.434 111.533 361.084 112.127C361.734 112.722 362.238 113.425 362.566 114.193C362.894 114.962 363.039 115.78 362.991 116.598L351.254 321.849L351.148 323.573C349.72 337.978 336.282 349.605 319.716 349.987Z" fill="#FAB12F"/>
<path d="M0 140C0 117.909 17.9086 100 40 100H360C382.091 100 400 117.909 400 140V308C400 357.706 359.706 398 310 398H90C40.2944 398 0 357.706 0 308V140Z" fill="#FAB12F"/>
<rect y="169" width="400" height="231" rx="90" fill="#FEF3E2"/>
<path d="M263.7 212H136.3C129.06 212 122.116 214.864 116.996 219.963C111.876 225.062 109 231.977 109 239.188V329.812C109 337.023 111.876 343.938 116.996 349.037C122.116 354.136 129.06 357 136.3 357H263.7C270.94 357 277.884 354.136 283.004 349.037C288.124 343.938 291 337.023 291 329.812V239.188C291 231.977 288.124 225.062 283.004 219.963C277.884 214.864 270.94 212 263.7 212ZM172.7 248.25C179.663 248.25 186.364 250.899 191.43 255.657C196.497 260.414 199.546 266.92 199.955 273.843L200 275.438V311.688C199.997 313.997 199.109 316.219 197.517 317.899C195.925 319.578 193.749 320.589 191.433 320.724C189.118 320.86 186.838 320.11 185.059 318.627C183.281 317.144 182.138 315.041 181.864 312.748L181.8 311.688V302.625H163.6V311.688C163.597 313.997 162.709 316.219 161.117 317.899C159.525 319.578 157.349 320.589 155.033 320.724C152.718 320.86 150.438 320.11 148.659 318.627C146.881 317.144 145.738 315.041 145.464 312.748L145.4 311.688V275.438C145.4 268.227 148.276 261.312 153.396 256.213C158.516 251.114 165.46 248.25 172.7 248.25ZM172.7 266.375C170.471 266.375 168.32 267.19 166.654 268.665C164.989 270.14 163.924 272.173 163.664 274.377L163.6 275.438V284.5H181.8V275.438C181.8 273.034 180.841 270.729 179.135 269.029C177.428 267.33 175.113 266.375 172.7 266.375ZM245.5 248.25C247.729 248.25 249.88 249.065 251.546 250.54C253.211 252.015 254.276 254.048 254.536 256.252L254.6 257.312V311.688C254.6 313.907 253.781 316.05 252.3 317.708C250.819 319.367 248.778 320.427 246.565 320.687L245.5 320.75H231.85C228.739 320.747 225.662 320.108 222.809 318.874C219.956 317.639 217.387 315.835 215.262 313.573C213.137 311.311 211.5 308.639 210.452 305.722C209.405 302.805 208.97 299.705 209.173 296.614C209.376 293.522 210.214 290.505 211.634 287.749C213.054 284.993 215.027 282.556 217.431 280.589C219.834 278.623 222.617 277.167 225.607 276.314C228.598 275.461 231.732 275.227 234.817 275.628L236.4 275.891V257.312C236.4 255.093 237.219 252.95 238.7 251.292C240.181 249.633 242.222 248.573 244.435 248.313L245.5 248.25ZM232.669 293.635L231.85 293.562C230.713 293.56 229.616 293.982 228.776 294.745C227.936 295.508 227.413 296.557 227.31 297.684C227.208 298.812 227.532 299.937 228.221 300.838C228.91 301.739 229.912 302.351 231.031 302.552L231.85 302.625H236.4V298.094L236.327 297.278C236.185 296.505 235.844 295.782 235.337 295.179C234.829 294.577 234.173 294.117 233.433 293.843L232.669 293.635Z" fill="#F87B1B"/>
</svg>
